<svg width="193" height="38" viewBox="0 0 193 38" fill="none" xmlns="http://www.w3.org/2000/svg">
<path d="M8.70752 19L4.37467 23.2671L0 19L4.37306 14.6949L8.70752 19ZM19.3 8.57217L26.7627 15.9188L31.1373 11.6153L19.3 0L7.46267 11.6533L11.8373 15.9568L19.3 8.57217ZM34.2269 14.6949L29.8925 19L34.2655 23.3051L38.637 19L34.2269 14.6949ZM19.3 29.4278L11.8373 22.0432L7.46267 26.3482L19.3 38L31.1373 26.3467L26.7627 22.0432L19.3 29.4278ZM19.3 23.2687L23.6731 18.962L19.3 14.6965L14.9269 19L19.3 23.2671V23.2687ZM65.2887 23.712V23.6392C65.2887 20.8557 63.7801 19.4449 61.3306 18.5171C62.8376 17.7017 64.1194 16.3638 64.1194 14.0268V13.9539C64.1194 10.6875 61.4432 8.57217 57.1457 8.57217H47.3075V29.3914H57.3725C62.1589 29.4278 65.2887 27.4978 65.2887 23.7136V23.712ZM59.4826 14.8073C59.4826 16.3653 58.2008 16.9955 56.1276 16.9955H51.8318V12.5796H56.43C58.3905 12.5796 59.4826 13.3586 59.4826 14.7329V14.8073ZM60.6519 23.1198C60.6519 24.6778 59.4086 25.384 57.3709 25.384H51.8318V20.8177H57.2213C59.5968 20.8177 60.6519 21.6727 60.6519 23.0818V23.1198ZM75.0513 29.4278V8.57217H70.3775V29.3914H75.0513V29.4278ZM100.082 29.4278V8.57217H95.4819V21.413L85.5682 8.57217H81.2707V29.3914H85.8705V16.1801L96.1237 29.4278H100.08H100.082ZM125.863 29.4278L116.781 8.46133H112.485L103.4 29.4278H108.188L110.11 24.7522H119.044L120.966 29.4278H125.867H125.863ZM117.383 20.7068H111.766L114.594 13.9539L117.383 20.7068ZM148.068 29.4278V8.57217H143.468V21.413L133.554 8.57217H129.257V29.3914H133.857V16.1801L144.11 29.4278H148.066H148.068ZM172.079 26.0506L169.102 23.1198C167.442 24.6034 165.972 25.5677 163.522 25.5677C159.904 25.5677 157.379 22.5989 157.379 19.0364V18.9256C157.379 15.3631 159.941 12.4323 163.522 12.4323C165.633 12.4323 167.292 13.3222 168.951 14.7693L171.928 11.3921C169.969 9.5 167.593 8.16367 163.598 8.16367C157.115 8.16367 152.554 13.0245 152.554 18.9256V19C152.554 24.9739 157.189 29.7239 163.41 29.7239C167.481 29.7619 169.893 28.3512 172.079 26.0506ZM191.945 29.4278V25.346H180.447V20.9665H190.436V16.8847H180.447V12.654H191.794V8.57217H175.849V29.3914H191.945V29.4278Z" fill="white"/>
</svg>
