<svg width="325" height="52" viewBox="0 0 325 52" fill="none" xmlns="http://www.w3.org/2000/svg">
<rect x="0.5" y="0.5" width="324" height="51" rx="25.5" stroke="url(#paint0_linear_1_1624)"/>
<path d="M104.297 31.6562C103.297 31.6562 102.401 31.4167 101.609 30.9375C100.818 30.4583 100.195 29.7734 99.7422 28.8828C99.2891 27.987 99.0625 26.9219 99.0625 25.6875C99.0625 24.4427 99.2891 23.375 99.7422 22.4844C100.201 21.5885 100.823 20.901 101.609 20.4219C102.401 19.9427 103.297 19.7031 104.297 19.7031C104.911 19.7031 105.487 19.7917 106.023 19.9688C106.565 20.1458 107.049 20.4036 107.477 20.7422C107.904 21.0807 108.255 21.4948 108.531 21.9844C108.812 22.474 109 23.0286 109.094 23.6484H107.328C107.26 23.2682 107.133 22.9349 106.945 22.6484C106.763 22.3568 106.536 22.112 106.266 21.9141C106 21.7109 105.701 21.5599 105.367 21.4609C105.039 21.3568 104.69 21.3047 104.32 21.3047C103.654 21.3047 103.052 21.474 102.516 21.8125C101.984 22.1458 101.565 22.6406 101.258 23.2969C100.956 23.9479 100.805 24.7448 100.805 25.6875C100.805 26.6354 100.958 27.4349 101.266 28.0859C101.573 28.7318 101.992 29.2214 102.523 29.5547C103.055 29.888 103.651 30.0547 104.312 30.0547C104.682 30.0547 105.031 30.0052 105.359 29.9062C105.688 29.8073 105.987 29.6589 106.258 29.4609C106.529 29.263 106.755 29.0234 106.938 28.7422C107.125 28.4557 107.255 28.125 107.328 27.75H109.094C109.005 28.3281 108.826 28.8568 108.555 29.3359C108.284 29.8099 107.938 30.2214 107.516 30.5703C107.094 30.9141 106.612 31.1823 106.07 31.375C105.529 31.5625 104.938 31.6562 104.297 31.6562ZM115.726 31.6562C114.726 31.6562 113.83 31.4167 113.039 30.9375C112.247 30.4583 111.622 29.7734 111.164 28.8828C110.705 27.987 110.476 26.9219 110.476 25.6875C110.476 24.4427 110.705 23.375 111.164 22.4844C111.622 21.5885 112.247 20.901 113.039 20.4219C113.83 19.9427 114.726 19.7031 115.726 19.7031C116.737 19.7031 117.635 19.9427 118.422 20.4219C119.208 20.901 119.828 21.5885 120.281 22.4844C120.739 23.375 120.968 24.4427 120.968 25.6875C120.968 26.9271 120.739 27.9922 120.281 28.8828C119.828 29.7734 119.208 30.4583 118.422 30.9375C117.635 31.4167 116.737 31.6562 115.726 31.6562ZM115.726 30.0547C116.398 30.0547 116.997 29.888 117.523 29.5547C118.049 29.2214 118.463 28.7292 118.765 28.0781C119.073 27.4271 119.226 26.6302 119.226 25.6875C119.226 24.7396 119.073 23.9401 118.765 23.2891C118.463 22.6328 118.049 22.138 117.523 21.8047C116.997 21.4714 116.398 21.3047 115.726 21.3047C115.06 21.3047 114.461 21.4714 113.929 21.8047C113.403 22.138 112.987 22.6328 112.679 23.2891C112.372 23.9401 112.218 24.7396 112.218 25.6875C112.218 26.6302 112.372 27.4271 112.679 28.0781C112.987 28.7292 113.403 29.2214 113.929 29.5547C114.461 29.888 115.06 30.0547 115.726 30.0547ZM124.554 19.8594V31.5H122.796V19.8594H124.554ZM136.171 19.8594V31.5H134.53L128.632 22.9688H128.515V31.5H126.757V19.8594H128.382L134.304 28.4062H134.413V19.8594H136.171ZM142.147 31.5H139.272V29.9609H142.046C142.931 29.9609 143.668 29.7969 144.257 29.4688C144.845 29.1354 145.285 28.6484 145.577 28.0078C145.869 27.362 146.014 26.5807 146.014 25.6641C146.014 24.7526 145.869 23.9792 145.577 23.3438C145.29 22.7083 144.861 22.2266 144.288 21.8984C143.715 21.5651 143.004 21.3984 142.155 21.3984H139.21V19.8594H142.264C143.405 19.8594 144.384 20.0911 145.202 20.5547C146.02 21.0182 146.647 21.6849 147.085 22.5547C147.522 23.4193 147.741 24.4557 147.741 25.6641C147.741 26.8776 147.52 27.9193 147.077 28.7891C146.639 29.6589 146.004 30.3281 145.171 30.7969C144.337 31.2656 143.329 31.5 142.147 31.5ZM140.132 19.8594V31.5H138.374V19.8594H140.132ZM149.569 31.5V19.8594H156.873V21.3672H151.327V24.875H156.483V26.375H151.327V29.9922H156.928V31.5H149.569ZM162.756 31.6875C161.886 31.6875 161.131 31.5521 160.49 31.2812C159.855 31.0052 159.357 30.612 158.998 30.1016C158.639 29.5911 158.438 28.9844 158.397 28.2812H160.162C160.199 28.7031 160.334 29.0547 160.568 29.3359C160.808 29.612 161.118 29.8177 161.498 29.9531C161.878 30.0885 162.295 30.1562 162.748 30.1562C163.243 30.1562 163.686 30.0781 164.076 29.9219C164.467 29.7656 164.772 29.5469 164.99 29.2656C165.214 28.9792 165.326 28.6458 165.326 28.2656C165.326 27.9219 165.227 27.6406 165.029 27.4219C164.837 27.2031 164.574 27.0234 164.24 26.8828C163.907 26.737 163.532 26.6094 163.115 26.5L161.748 26.125C160.811 25.875 160.071 25.5026 159.529 25.0078C158.988 24.5078 158.717 23.8542 158.717 23.0469C158.717 22.375 158.897 21.7891 159.256 21.2891C159.621 20.7891 160.113 20.401 160.732 20.125C161.357 19.8438 162.058 19.7031 162.834 19.7031C163.626 19.7031 164.321 19.8438 164.92 20.125C165.524 20.401 166.001 20.7812 166.35 21.2656C166.704 21.7448 166.889 22.2943 166.904 22.9141H165.201C165.139 22.3776 164.889 21.9609 164.451 21.6641C164.019 21.3672 163.467 21.2188 162.795 21.2188C162.326 21.2188 161.915 21.2943 161.561 21.4453C161.212 21.5911 160.941 21.7943 160.748 22.0547C160.561 22.3151 160.467 22.6146 160.467 22.9531C160.467 23.3177 160.579 23.6146 160.803 23.8438C161.032 24.0729 161.308 24.2552 161.631 24.3906C161.959 24.5208 162.274 24.6276 162.576 24.7109L163.709 25.0156C164.079 25.1094 164.459 25.2344 164.85 25.3906C165.24 25.5469 165.602 25.7526 165.936 26.0078C166.274 26.2578 166.545 26.5703 166.748 26.9453C166.956 27.3151 167.061 27.763 167.061 28.2891C167.061 28.9401 166.891 29.5234 166.553 30.0391C166.214 30.5495 165.725 30.9531 165.084 31.25C164.443 31.5417 163.667 31.6875 162.756 31.6875ZM168.802 31.5V19.8594H170.56V25.4219H170.701L175.592 19.8594H177.787L173.099 25.0938L177.81 31.5H175.693L171.927 26.3047L170.56 27.8906V31.5H168.802Z" fill="white"/>
<rect x="203" y="14.5" width="23" height="23" rx="11.5" stroke="white"/>
<path d="M213.167 22.6666L215.833 26L213.167 29.3333" stroke="white" stroke-width="1.5" stroke-linecap="round" stroke-linejoin="round"/>
<defs>
<linearGradient id="paint0_linear_1_1624" x1="334.522" y1="52" x2="239.622" y2="-121.819" gradientUnits="userSpaceOnUse">
<stop stop-color="#6E6E6E" stop-opacity="0.4"/>
<stop offset="0.160909" stop-color="#6C6C6C" stop-opacity="0"/>
<stop offset="0.825331" stop-color="#6A6A6A" stop-opacity="0"/>
<stop offset="1" stop-color="#666666" stop-opacity="0.4"/>
</linearGradient>
</defs>
</svg>
