<svg width="188" height="53" viewBox="0 0 188 53" fill="none" xmlns="http://www.w3.org/2000/svg">
<rect x="0.552979" y="0.513428" width="186" height="51" rx="25.5" stroke="url(#paint0_linear_1_1601)"/>
<path d="M24.9905 31.5134V19.8728H29.1467C30.0478 19.8728 30.7952 20.0291 31.3889 20.3416C31.9827 20.6488 32.428 21.0785 32.7249 21.6306C33.0217 22.1775 33.1702 22.8103 33.1702 23.5291C33.1702 24.2374 33.0217 24.8624 32.7249 25.4041C32.428 25.9457 31.9801 26.365 31.3811 26.6619C30.7874 26.9587 30.0374 27.1072 29.1311 27.1072H25.9983V25.6072H28.967C29.5452 25.6072 30.0113 25.5238 30.3655 25.3572C30.7249 25.1905 30.9853 24.9535 31.1467 24.6462C31.3134 24.3389 31.3967 23.9666 31.3967 23.5291C31.3967 23.0863 31.3134 22.7061 31.1467 22.3884C30.9801 22.0655 30.717 21.8181 30.3577 21.6462C30.0035 21.4692 29.5374 21.3806 28.9592 21.3806H26.7483V31.5134H24.9905ZM31.6155 31.5134L28.7952 26.2556H30.7405L33.6155 31.5134H31.6155ZM34.9667 31.5134V19.8728H42.2714V21.3806H36.7245V24.8884H41.8808V26.3884H36.7245V30.0056H42.3261V31.5134H34.9667ZM45.2477 31.5134H43.3805L47.568 19.8728H49.5992L53.7789 31.5134H51.9195L48.6227 21.99H48.5289L45.2477 31.5134ZM45.5602 26.9587H51.5992V28.4275H45.5602V26.9587ZM58.8645 31.5134H55.9895V29.9744H58.763C59.6484 29.9744 60.3854 29.8103 60.9739 29.4822C61.5625 29.1488 62.0026 28.6619 62.2942 28.0212C62.5859 27.3754 62.7317 26.5942 62.7317 25.6775C62.7317 24.766 62.5859 23.9926 62.2942 23.3572C62.0078 22.7218 61.5781 22.24 61.0052 21.9119C60.4322 21.5785 59.7213 21.4119 58.8724 21.4119H55.927V19.8728H58.9817C60.1224 19.8728 61.1015 20.1046 61.9192 20.5681C62.7369 21.0317 63.3645 21.6983 63.802 22.5681C64.2395 23.4327 64.4583 24.4692 64.4583 25.6775C64.4583 26.891 64.2369 27.9327 63.7942 28.8025C63.3567 29.6723 62.7213 30.3416 61.888 30.8103C61.0546 31.2791 60.0468 31.5134 58.8645 31.5134ZM56.8489 19.8728V31.5134H55.0911V19.8728H56.8489ZM70.1686 19.8728H72.3092L76.0124 28.9197H76.1452L79.8561 19.8728H82.028V31.5134H80.3092V23.0916H80.1999L76.7545 31.4978H75.3639L71.9577 23.0837H71.8483V31.5134H70.1686V19.8728ZM89.098 31.6697C88.098 31.6697 87.2021 31.4301 86.4105 30.9509C85.6188 30.4718 84.9938 29.7869 84.5355 28.8962C84.0771 28.0004 83.848 26.9353 83.848 25.7009C83.848 24.4561 84.0771 23.3884 84.5355 22.4978C84.9938 21.602 85.6188 20.9145 86.4105 20.4353C87.2021 19.9561 88.098 19.7166 89.098 19.7166C90.1084 19.7166 91.0068 19.9561 91.7933 20.4353C92.5797 20.9145 93.1995 21.602 93.6527 22.4978C94.111 23.3884 94.3402 24.4561 94.3402 25.7009C94.3402 26.9405 94.111 28.0056 93.6527 28.8962C93.1995 29.7869 92.5797 30.4718 91.7933 30.9509C91.0068 31.4301 90.1084 31.6697 89.098 31.6697ZM89.098 30.0681C89.7699 30.0681 90.3688 29.9014 90.8949 29.5681C91.4209 29.2348 91.835 28.7426 92.137 28.0916C92.4443 27.4405 92.598 26.6436 92.598 25.7009C92.598 24.753 92.4443 23.9535 92.137 23.3025C91.835 22.6462 91.4209 22.1514 90.8949 21.8181C90.3688 21.4848 89.7699 21.3181 89.098 21.3181C88.4313 21.3181 87.8324 21.4848 87.3011 21.8181C86.7751 22.1514 86.3584 22.6462 86.0511 23.3025C85.7438 23.9535 85.5902 24.753 85.5902 25.7009C85.5902 26.6436 85.7438 27.4405 86.0511 28.0916C86.3584 28.7426 86.7751 29.2348 87.3011 29.5681C87.8324 29.9014 88.4313 30.0681 89.098 30.0681ZM96.168 31.5134V19.8728H100.324C101.225 19.8728 101.973 20.0291 102.566 20.3416C103.16 20.6488 103.605 21.0785 103.902 21.6306C104.199 22.1775 104.348 22.8103 104.348 23.5291C104.348 24.2374 104.199 24.8624 103.902 25.4041C103.605 25.9457 103.158 26.365 102.559 26.6619C101.965 26.9587 101.215 27.1072 100.309 27.1072H97.1758V25.6072H100.145C100.723 25.6072 101.189 25.5238 101.543 25.3572C101.902 25.1905 102.163 24.9535 102.324 24.6462C102.491 24.3389 102.574 23.9666 102.574 23.5291C102.574 23.0863 102.491 22.7061 102.324 22.3884C102.158 22.0655 101.895 21.8181 101.535 21.6462C101.181 21.4692 100.715 21.3806 100.137 21.3806H97.9258V31.5134H96.168ZM102.793 31.5134L99.9727 26.2556H101.918L104.793 31.5134H102.793ZM106.144 31.5134V19.8728H113.449V21.3806H107.902V24.8884H113.058V26.3884H107.902V30.0056H113.504V31.5134H106.144Z" fill="white"/>
<rect x="139.553" y="14.5134" width="23" height="23" rx="11.5" stroke="white"/>
<path d="M149.72 22.6801L152.386 26.0134L149.72 29.3467" stroke="white" stroke-width="1.5" stroke-linecap="round" stroke-linejoin="round"/>
<defs>
<linearGradient id="paint0_linear_1_1601" x1="192.532" y1="52.0134" x2="79.871" y2="-66.7169" gradientUnits="userSpaceOnUse">
<stop stop-color="#6E6E6E" stop-opacity="0.4"/>
<stop offset="0.160909" stop-color="#6C6C6C" stop-opacity="0"/>
<stop offset="0.825331" stop-color="#6A6A6A" stop-opacity="0"/>
<stop offset="1" stop-color="#666666" stop-opacity="0.4"/>
</linearGradient>
</defs>
</svg>
