<svg width="94" height="36" viewBox="0 0 94 36" fill="none" xmlns="http://www.w3.org/2000/svg">
<g clip-path="url(#clip0_1_1383)">
<mask id="mask0_1_1383" style="mask-type:luminance" maskUnits="userSpaceOnUse" x="0" y="0" width="94" height="36">
<path d="M93.69 0H0V36H93.69V0Z" fill="white"/>
</mask>
<g mask="url(#mask0_1_1383)">
<path d="M17.7732 35.9954C27.5892 35.9954 35.5465 27.9375 35.5465 17.9977C35.5465 8.05783 27.5892 0 17.7732 0C7.95735 0 0 8.05783 0 17.9977C0 27.9375 7.95735 35.9954 17.7732 35.9954Z" fill="url(#paint0_linear_1_1383)"/>
<path d="M41.4229 7.81665H50.6098C52.7282 7.81665 54.4084 8.28774 55.655 9.23454C56.9016 10.1813 57.5249 11.558 57.5249 13.3646C57.5249 14.6453 57.2494 15.656 56.6984 16.3924C56.1473 17.1288 55.4472 17.6548 54.5936 17.9704C55.0904 18.1167 55.5692 18.318 56.0254 18.5695C56.4816 18.8211 56.8881 19.155 57.2404 19.562C57.5927 19.9737 57.8772 20.4676 58.0985 21.044C58.3153 21.6202 58.4238 22.288 58.4238 23.0472C58.4238 25.0231 57.7372 26.5553 56.3687 27.6347C54.9956 28.7187 52.9811 29.2584 50.3253 29.2584H41.4229V7.81665ZM49.8329 16.2095C50.6234 16.2095 51.1789 16.0403 51.4997 15.7064C51.8203 15.3725 51.9829 14.8968 51.9829 14.2885C51.9829 13.6802 51.8339 13.1999 51.5312 12.8523C51.2286 12.5048 50.6866 12.3309 49.8962 12.3309H46.9061V16.2095H49.8329ZM50.2982 24.7578C51.2331 24.7578 51.8745 24.5566 52.2313 24.1587C52.5836 23.7607 52.7598 23.2119 52.7598 22.5167C52.7598 21.8215 52.5791 21.2817 52.2133 20.893C51.8519 20.5042 51.2105 20.3076 50.2982 20.3076H46.9016V24.7532H50.2982V24.7578Z" fill="white"/>
<path d="M65.0632 12.6419H59.458V7.81665H76.3413V12.6419H70.7318V29.2629H65.0632V12.6419Z" fill="white"/>
<path d="M85.6505 29.5832C84.4673 29.5832 83.4009 29.455 82.4571 29.2035C81.5133 28.9519 80.6819 28.6364 79.9642 28.2567C79.2458 27.8771 78.6361 27.4518 78.1255 26.9807C77.6154 26.5096 77.195 26.0522 76.8654 25.6086L80.976 22.4847C81.4949 23.1387 82.0957 23.6876 82.7823 24.1403C83.4689 24.5932 84.3409 24.8173 85.3978 24.8173C86.2469 24.8173 86.9062 24.6846 87.3756 24.4239C87.8411 24.1632 88.0761 23.7242 88.0761 23.1158C88.0761 22.6539 87.9046 22.2926 87.561 22.0273C87.2181 21.7666 86.6941 21.5196 85.9891 21.2863L83.4962 20.4356C82.7283 20.1841 82.0233 19.8685 81.378 19.4889C80.7321 19.1092 80.1763 18.6564 79.7108 18.1305C79.2458 17.6045 78.88 17.0007 78.6228 16.3146C78.3605 15.6332 78.2341 14.8465 78.2341 13.9638C78.2341 12.9118 78.4329 11.9879 78.826 11.1875C79.2185 10.3871 79.7565 9.71932 80.4291 9.1842C81.1023 8.64909 81.8791 8.24197 82.7505 7.96759C83.6226 7.69316 84.5257 7.55591 85.4606 7.55591C86.3956 7.55591 87.2358 7.63369 87.9859 7.79377C88.7354 7.95384 89.4042 8.16424 89.9955 8.42492C90.5875 8.69023 91.107 8.98749 91.5541 9.32595C92.0013 9.66442 92.3804 10.0212 92.6923 10.3962L89.4537 13.8357C89.0155 13.3738 88.5093 12.9987 87.9269 12.7151C87.3445 12.4315 86.6306 12.2898 85.7769 12.2898C85.0904 12.2898 84.5753 12.4315 84.2367 12.7151C83.8938 12.9987 83.7216 13.3509 83.7216 13.7717C83.7216 14.1924 83.8391 14.5172 84.0786 14.7504C84.318 14.9837 84.6972 15.1804 85.2168 15.3496L88.0215 16.2964C89.079 16.6531 89.9733 17.0465 90.7005 17.481C91.4271 17.9109 92.0102 18.3957 92.444 18.9309C92.8771 19.466 93.1979 20.056 93.3922 20.6963C93.591 21.3366 93.6901 22.0365 93.6901 22.7957C93.6901 23.7836 93.5364 24.6938 93.2207 25.5262C92.9089 26.3586 92.4255 27.0722 91.7707 27.6713C91.1159 28.2704 90.28 28.737 89.2638 29.0754C88.2476 29.4139 87.0459 29.5832 85.6505 29.5832Z" fill="white"/>
<path d="M14.2999 16.2826C16.0524 16.2826 17.8093 16.2735 19.5619 16.2826C20.9078 16.2918 21.5402 15.1118 21.3731 14.0415C21.2737 13.3966 20.8446 13.0353 20.1581 12.9804C20.0587 12.9713 19.9593 12.9758 19.8599 12.9758C17.2674 12.9758 14.6702 12.9758 12.0776 12.9804C11.888 12.9804 11.8067 12.9713 11.8428 12.7334C11.9783 11.7501 12.0957 10.7667 12.2087 9.78332C12.2312 9.60956 12.2899 9.55466 12.4706 9.55466C15.0135 9.55922 17.5609 9.5409 20.1038 9.56379C22.0912 9.58211 23.5772 10.4603 24.3721 12.3447C24.9638 13.7442 24.9051 15.1712 24.327 16.5754C24.2502 16.7629 24.2773 16.8315 24.4489 16.9321C25.804 17.7463 26.5492 18.9857 26.7479 20.5362C26.9919 22.4389 26.4408 24.0855 24.9729 25.3524C24.1282 26.0842 23.1165 26.4135 22.0099 26.4318C20.56 26.4501 19.1102 26.4363 17.6603 26.4409C17.4932 26.4409 17.439 26.4181 17.4661 26.226C17.6016 25.2335 17.719 24.241 17.8274 23.2485C17.8455 23.0701 17.8952 23.0152 18.0803 23.0152C19.2818 23.0243 20.4833 23.0198 21.6893 23.0198C23.0397 23.0198 23.8347 21.7986 23.2926 20.5362C23.0442 19.9554 22.561 19.7221 21.9647 19.7175C21.1156 19.7084 20.2665 19.713 19.4218 19.713C18.3514 19.713 17.2809 19.7221 16.2104 19.7084C16.0072 19.7038 15.9485 19.7724 15.9259 19.9645C15.7633 21.3458 15.5916 22.7271 15.4245 24.1083C15.3387 24.8264 15.2484 25.5491 15.1671 26.2671C15.1535 26.4043 15.0948 26.4455 14.9638 26.4455C13.9521 26.4409 12.9358 26.4409 11.9241 26.4455C11.7705 26.4455 11.7299 26.4135 11.7524 26.2534C11.9195 24.9728 12.0731 23.6921 12.2312 22.4115C12.3351 21.5836 12.4345 20.7557 12.5474 19.9325C12.5745 19.7358 12.5022 19.7175 12.3396 19.7175C11.0569 19.7221 9.7696 19.7175 8.48689 19.7221C8.28364 19.7221 8.20686 19.7084 8.24299 19.4614C8.38298 18.4872 8.49591 17.513 8.60883 16.5342C8.63138 16.3375 8.69915 16.278 8.89788 16.2826C10.6956 16.2872 12.4977 16.2826 14.2999 16.2826Z" fill="white"/>
<path d="M14.3541 7.34097L13.9386 10.5518H17.2854L17.7733 7.28613L14.3541 7.34097Z" fill="white"/>
<path d="M20.0452 7.34097L19.6342 10.5518H22.9811L23.4688 7.28613L20.0452 7.34097Z" fill="white"/>
<path d="M12.5655 19.745L11.3866 29.2675H14.8148L15.9394 19.6489L12.5655 19.745Z" fill="white"/>
<path d="M17.8364 23.0015L17.0822 29.3407H20.5104L21.2104 23.0197L17.8364 23.0015Z" fill="white"/>
</g>
</g>
<defs>
<linearGradient id="paint0_linear_1_1383" x1="0" y1="0" x2="35.2122" y2="34.5473" gradientUnits="userSpaceOnUse">
<stop stop-color="#72CCFF"/>
<stop offset="1" stop-color="#0032C1"/>
</linearGradient>
<clipPath id="clip0_1_1383">
<rect width="94" height="36" fill="white"/>
</clipPath>
</defs>
</svg>
