<svg width="59" height="59" viewBox="0 0 59 59" fill="none" xmlns="http://www.w3.org/2000/svg">
<g filter="url(#filter0_di_1_1526)">
<circle cx="25.7285" cy="29.7357" r="25.076" fill="#243741"/>
</g>
<g clip-path="url(#clip0_1_1526)">
<path d="M34.1795 22.3273L28.1525 18.8473C27.3919 18.41 26.5299 18.1798 25.6525 18.1798C24.7751 18.1798 23.9131 18.41 23.1525 18.8473L17.1255 22.3273C16.3664 22.7673 15.736 23.3987 15.2973 24.1585C14.8586 24.9183 14.6269 25.78 14.6255 26.6573V33.6173C14.627 34.4948 14.8586 35.3566 15.2973 36.1166C15.736 36.8766 16.3664 37.5082 17.1255 37.9483L23.1525 41.4273C23.913 41.865 24.775 42.0954 25.6525 42.0954C26.5299 42.0954 27.392 41.865 28.1525 41.4273L34.1795 37.9483C34.9386 37.5082 35.569 36.8766 36.0077 36.1166C36.4464 35.3566 36.678 34.4948 36.6795 33.6173V26.6573C36.6781 25.78 36.4464 24.9183 36.0077 24.1585C35.569 23.3987 34.9386 22.7673 34.1795 22.3273ZM24.1525 20.5803C24.6085 20.317 25.1259 20.1784 25.6525 20.1784C26.1791 20.1784 26.6964 20.317 27.1525 20.5803L33.1795 24.0593C33.3323 24.1559 33.4759 24.2664 33.6085 24.3893L27.4155 27.9643C26.8793 28.2734 26.2714 28.4361 25.6525 28.4361C25.0336 28.4361 24.4256 28.2734 23.8895 27.9643L17.6965 24.3893C17.8291 24.2664 17.9727 24.1559 18.1255 24.0593L24.1525 20.5803ZM18.1255 36.2153C17.6697 35.9513 17.2912 35.5721 17.028 35.1158C16.7648 34.6595 16.626 34.1421 16.6255 33.6153V26.6573C16.6324 26.4772 16.6562 26.2981 16.6965 26.1223L22.8895 29.6973C23.4364 30.0085 24.0328 30.2233 24.6525 30.3323V39.9013C24.4798 39.8484 24.3124 39.7795 24.1525 39.6953L18.1255 36.2153ZM34.6795 33.6153C34.679 34.1421 34.5402 34.6595 34.277 35.1158C34.0137 35.5721 33.6353 35.9513 33.1795 36.2153L27.1525 39.6953C26.9926 39.7795 26.8252 39.8484 26.6525 39.9013V30.3323C27.2722 30.2233 27.8685 30.0085 28.4155 29.6973L34.6085 26.1223C34.6488 26.2981 34.6725 26.4772 34.6795 26.6573V33.6153Z" fill="#54FFA3"/>
</g>
<defs>
<filter id="filter0_di_1_1526" x="0.652466" y="0.659668" width="58.152" height="58.152" filterUnits="userSpaceOnUse" color-interpolation-filters="sRGB">
<feFlood flood-opacity="0" result="BackgroundImageFix"/>
<feColorMatrix in="SourceAlpha" type="matrix" values="0 0 0 0 0 0 0 0 0 0 0 0 0 0 0 0 0 0 127 0" result="hardAlpha"/>
<feOffset dx="4"/>
<feGaussianBlur stdDeviation="2"/>
<feComposite in2="hardAlpha" operator="out"/>
<feColorMatrix type="matrix" values="0 0 0 0 0 0 0 0 0 0 0 0 0 0 0 0 0 0 0.2 0"/>
<feBlend mode="normal" in2="BackgroundImageFix" result="effect1_dropShadow_1_1526"/>
<feBlend mode="normal" in="SourceGraphic" in2="effect1_dropShadow_1_1526" result="shape"/>
<feColorMatrix in="SourceAlpha" type="matrix" values="0 0 0 0 0 0 0 0 0 0 0 0 0 0 0 0 0 0 127 0" result="hardAlpha"/>
<feOffset dx="4" dy="4"/>
<feGaussianBlur stdDeviation="2"/>
<feComposite in2="hardAlpha" operator="arithmetic" k2="-1" k3="1"/>
<feColorMatrix type="matrix" values="0 0 0 0 0 0 0 0 0 0 0 0 0 0 0 0 0 0 0.25 0"/>
<feBlend mode="normal" in2="shape" result="effect2_innerShadow_1_1526"/>
</filter>
<clipPath id="clip0_1_1526">
<rect width="24" height="24" fill="white" transform="translate(13.6525 18.1104)"/>
</clipPath>
</defs>
</svg>
