<svg width="274" height="274" viewBox="0 0 274 274" fill="none" xmlns="http://www.w3.org/2000/svg">
<g id="Group 11">
<g id="Rectangle 1039" filter="url(#filter0_bd_1_1683)">
<rect x="30.8131" y="30.5222" width="172.766" height="172.766" rx="44.5" fill="url(#paint0_linear_1_1683)" fill-opacity="0.5"/>
<rect x="31.3131" y="31.0222" width="171.766" height="171.766" rx="44" stroke="url(#paint1_linear_1_1683)"/>
</g>
<g id="Group 2">
<g id="Ellipse 228" filter="url(#filter1_b_1_1683)">
<ellipse cx="118.264" cy="115.151" rx="46.8306" ry="46.8476" fill="url(#paint2_linear_1_1683)"/>
<path d="M164.962 115.151C164.962 140.951 144.055 161.866 118.264 161.866C92.473 161.866 71.5652 140.951 71.5652 115.151C71.5652 89.3502 92.473 68.435 118.264 68.435C144.055 68.435 164.962 89.3502 164.962 115.151Z" stroke="url(#paint3_linear_1_1683)" stroke-opacity="0.5" stroke-width="0.263998"/>
</g>
<g id="Vector" filter="url(#filter2_d_1_1683)">
<path d="M116.484 65.4636C88.5143 65.4636 65.7546 88.2315 65.7546 116.211C65.7546 144.191 88.5143 166.971 116.484 166.971C144.453 166.971 167.213 144.203 167.213 116.223C167.213 88.2433 144.453 65.4636 116.484 65.4636ZM138.342 106.537L112.972 133.861C111.824 135.103 110.255 135.735 108.675 135.735C107.317 135.735 105.97 135.266 104.858 134.33L91.1954 122.618C88.7367 120.51 88.4558 116.82 90.5631 114.361C92.6705 111.901 96.3584 111.608 98.817 113.728L108.207 121.774L129.749 98.5731C131.95 96.2073 135.649 96.0668 138.026 98.2686C140.403 100.47 140.531 104.171 138.342 106.537Z" fill="url(#paint4_linear_1_1683)"/>
</g>
</g>
</g>
<defs>
<filter id="filter0_bd_1_1683" x="0.81311" y="0.522217" width="272.766" height="272.766" filterUnits="userSpaceOnUse" color-interpolation-filters="sRGB">
<feFlood flood-opacity="0" result="BackgroundImageFix"/>
<feGaussianBlur in="BackgroundImageFix" stdDeviation="6"/>
<feComposite in2="SourceAlpha" operator="in" result="effect1_backgroundBlur_1_1683"/>
<feColorMatrix in="SourceAlpha" type="matrix" values="0 0 0 0 0 0 0 0 0 0 0 0 0 0 0 0 0 0 127 0" result="hardAlpha"/>
<feOffset dx="20" dy="20"/>
<feGaussianBlur stdDeviation="25"/>
<feColorMatrix type="matrix" values="0 0 0 0 0.0970855 0 0 0 0 0.238419 0 0 0 0 0.512772 0 0 0 0.05 0"/>
<feBlend mode="normal" in2="effect1_backgroundBlur_1_1683" result="effect2_dropShadow_1_1683"/>
<feBlend mode="normal" in="SourceGraphic" in2="effect2_dropShadow_1_1683" result="shape"/>
</filter>
<filter id="filter1_b_1_1683" x="51.6334" y="48.5031" width="133.261" height="133.295" filterUnits="userSpaceOnUse" color-interpolation-filters="sRGB">
<feFlood flood-opacity="0" result="BackgroundImageFix"/>
<feGaussianBlur in="BackgroundImageFix" stdDeviation="9.89992"/>
<feComposite in2="SourceAlpha" operator="in" result="effect1_backgroundBlur_1_1683"/>
<feBlend mode="normal" in="SourceGraphic" in2="effect1_backgroundBlur_1_1683" result="shape"/>
</filter>
<filter id="filter2_d_1_1683" x="55.7546" y="43.4636" width="133.458" height="133.507" filterUnits="userSpaceOnUse" color-interpolation-filters="sRGB">
<feFlood flood-opacity="0" result="BackgroundImageFix"/>
<feColorMatrix in="SourceAlpha" type="matrix" values="0 0 0 0 0 0 0 0 0 0 0 0 0 0 0 0 0 0 127 0" result="hardAlpha"/>
<feOffset dx="6" dy="-6"/>
<feGaussianBlur stdDeviation="8"/>
<feColorMatrix type="matrix" values="0 0 0 0 0.698039 0 0 0 0 0.968627 0 0 0 0 0.388235 0 0 0 0.2 0"/>
<feBlend mode="normal" in2="BackgroundImageFix" result="effect1_dropShadow_1_1683"/>
<feBlend mode="normal" in="SourceGraphic" in2="effect1_dropShadow_1_1683" result="shape"/>
</filter>
<linearGradient id="paint0_linear_1_1683" x1="30.8131" y1="30.5222" x2="70.2738" y2="225.06" gradientUnits="userSpaceOnUse">
<stop stop-color="#EAFFFE"/>
<stop offset="1" stop-color="#C9D9F1"/>
</linearGradient>
<linearGradient id="paint1_linear_1_1683" x1="35.4202" y1="32.5435" x2="73.1668" y2="226.315" gradientUnits="userSpaceOnUse">
<stop stop-color="white"/>
<stop offset="1" stop-color="white" stop-opacity="0"/>
</linearGradient>
<linearGradient id="paint2_linear_1_1683" x1="158.454" y1="85.2225" x2="41.7367" y2="69.0895" gradientUnits="userSpaceOnUse">
<stop stop-color="white"/>
<stop offset="1" stop-color="white" stop-opacity="0.61"/>
</linearGradient>
<linearGradient id="paint3_linear_1_1683" x1="81.5226" y1="99.7332" x2="161.054" y2="100.172" gradientUnits="userSpaceOnUse">
<stop stop-color="white"/>
<stop offset="1" stop-color="white" stop-opacity="0"/>
</linearGradient>
<linearGradient id="paint4_linear_1_1683" x1="167.213" y1="65.4636" x2="95.636" y2="149.137" gradientUnits="userSpaceOnUse">
<stop stop-color="#B2F763"/>
<stop offset="1" stop-color="#26AB3F"/>
</linearGradient>
</defs>
</svg>
